<svg width="268" height="269"  viewBox="0 0 268 269" xmlns="http://www.w3.org/2000/svg">
<path fillRule="evenodd" clipRule="evenodd" d="M48.999 1.12C49 1.461 52.106 7.086 55.902 13.62L62.805 25.5L116.152 26.056C166.029 26.576 169.955 26.745 176.5 28.66C194.293 33.864 208.433 42.322 219.936 54.638C243.666 80.048 249.25 114.397 234.768 145.868C223.548 170.249 199.045 188.71 171.584 193.474L167.667 194.153L193.851 220.351L220.035 246.549L215.516 250.984C212.412 254.03 211.389 255.634 212.249 256.105C214.025 257.08 260.116 269.217 260.517 268.816C260.699 268.634 257.876 257.335 254.244 243.708L247.639 218.931L242.804 223.693L237.969 228.455L226.436 216.586L214.904 204.716L220.582 200.946C244.685 184.939 262.323 157.149 267.032 127.757C268.987 115.555 267.789 92.762 264.586 81.194C259.688 63.507 251.167 48.453 238.508 35.118C223.852 19.68 209.147 10.842 187 4.16L178.5 1.596L113.749 1.048C78.137 0.747003 48.999 0.779002 48.999 1.12ZM13 22.676C6.125 34.575 0.349999 44.691 0.166999 45.155C-0.0170006 45.62 2.796 46 6.417 46H13V57.822C13 71.838 14.475 77.187 19.875 82.751C27.801 90.919 23.242 90.438 98.074 91L164.649 91.5L168.701 94.183C181.412 102.597 180.419 120.154 166.84 127.082C163.048 129.016 160.925 129.075 95.767 129.042L28.602 129.008L32.551 133.148C34.723 135.424 60.941 161.747 90.814 191.643L145.129 246H163.34H181.552L136.776 201.265C112.149 176.661 92 156.186 92 155.765C92 155.344 108.385 155 128.411 155C161.266 155 165.413 154.816 170.875 153.116C179.267 150.504 184.638 147.133 190.818 140.599C215.308 114.705 200.413 71.699 165 66.052C161.056 65.423 135.449 65.012 99.872 65.008C54.167 65.002 41.016 64.724 40.206 63.749C39.269 62.619 38.69 55.923 38.915 48.796C38.997 46.176 39.202 46.082 45.474 45.796L51.948 45.5L39.477 24C32.618 12.175 27.005 2.163 27.003 1.75C26.992 -0.860997 24.116 3.43801 13 22.676Z" />
</svg>
